# xmcd CD database file
#
# Track frame offsets:
#	150
#	12502
#	32517
#	51717
#	75635
#	96802
#	119015
#	135825
#	151946
#	175150
#	196040
#	218697
#	238345
#	259152
#	277185
#	295027
#	326948
#
# Disc length: 4795 seconds
#
# Revision: 4
# Processed by: cddbd v1.5.2PL0 Copyright (c) Steve Scherf et al.
# Submitted via: CDex 1.51
#
DISCID=f812b911
DTITLE=蔡琴 - 2004蔡琴精選 抒琴時間
DYEAR=2004
DGENRE=Pop
TTITLE0=被遺忘的時光
TTITLE1=點亮霓虹燈
TTITLE2=恰似你的溫柔
TTITLE3=示愛
TTITLE4=抉擇
TTITLE5=新感情舊回憶
TTITLE6=跟我說愛我
TTITLE7=香菸迷濛了眼睛
TTITLE8=愛你太濃
TTITLE9=心太急
TTITLE10=天台的月光
TTITLE11=那些事那些人
TTITLE12=你是最冷的情人
TTITLE13=傻話
TTITLE14=心上沒有人
TTITLE15=隨風去
TTITLE16=123
EXTD=YEAR: 2004
EXTT0=
EXTT1=
EXTT2=
EXTT3=
EXTT4=
EXTT5=
EXTT6=
EXTT7=
EXTT8=
EXTT9=
EXTT10=
EXTT11=
EXTT12=
EXTT13=
EXTT14=
EXTT15=
EXTT16=
PLAYORDER=
